<?xml version="1.0" encoding="UTF-8"?>
<!-- Full app icon: bright green background + walking figure (green gradient). -->
<svg xmlns="http://www.w3.org/2000/svg" viewBox="0 0 1024 1024" width="1024" height="1024">
  <defs>
    <linearGradient id="bg" x1="0" y1="0" x2="0.15" y2="1">
      <stop offset="0" stop-color="#ECFBEF"/>
      <stop offset="1" stop-color="#B8EBC4"/>
    </linearGradient>
    <linearGradient id="fig" x1="0" y1="0" x2="0.25" y2="1">
      <stop offset="0" stop-color="#2EB85A"/>
      <stop offset="1" stop-color="#0E9A47"/>
    </linearGradient>
  </defs>
  <rect width="1024" height="1024" fill="url(#bg)"/>
  <g transform="translate(96,104) scale(33.3)" fill="url(#fig)">
    <path d="M13.5 5.5c1.1 0 2-.9 2-2s-.9-2-2-2-2 .9-2 2 .9 2 2 2zM9.8 8.9L7 23h2.1l1.8-8 2.1 2v6h2v-7.5l-2.1-2 .6-3C14.8 12 16.8 13 19 13v-2c-1.9 0-3.5-1-4.3-2.4l-1-1.6c-.4-.6-1-1-1.7-1-.3 0-.5.1-.8.1L6 8.3V13h2V9.6l1.8-.7"/>
  </g>
</svg>
